<svg xmlns="http://www.w3.org/2000/svg" width="96" height="96" viewBox="0 0 96 96">
  <defs>
    <linearGradient id="bg" x1="0" y1="0" x2="0" y2="1">
      <stop offset="0" stop-color="#E0F7FA"/>
      <stop offset="1" stop-color="#B2EBF2"/>
    </linearGradient>
    <linearGradient id="skin" x1="0" y1="0" x2="0" y2="1">
      <stop offset="0" stop-color="#FAD9BC"/>
      <stop offset="1" stop-color="#F2C9A6"/>
    </linearGradient>
  </defs>
  <circle cx="48" cy="48" r="48" fill="url(#bg)"/>
  <path d="M23 54c0-21 11-37 25-37s25 16 25 37c0 12-2.5 22-7 29l-7.5-5.5c3.5-8 5.5-17 5.5-25H31.5c0 8 2 17 5.5 25L29.5 83c-4.5-7-6.5-17-6.5-29z" fill="#A6481F"/>
  <path d="M33 22c-5 8-7.5 18-7.5 29" stroke="#C4592A" stroke-width="2.6" stroke-linecap="round" fill="none" opacity=".55"/>
  <path d="M63 22c5 8 7.5 18 7.5 29" stroke="#C4592A" stroke-width="2.6" stroke-linecap="round" fill="none" opacity=".55"/>
  <path d="M48 66c-19 0-34 13-36 32h72c-2-19-17-32-36-32z" fill="#26A69A"/>
  <path d="M40.5 66.5c2-3 4.6-4.5 7.5-4.5s5.5 1.5 7.5 4.5L48 71z" fill="#B2DFDB"/>
  <rect x="41" y="52" width="14" height="18" rx="7" fill="#E5B893"/>
  <circle cx="31" cy="43" r="4.3" fill="#F2C9A6"/>
  <circle cx="65" cy="43" r="4.3" fill="#F2C9A6"/>
  <ellipse cx="48" cy="42" rx="17" ry="19" fill="url(#skin)"/>
  <path d="M31 42c-3 10-3.5 22-1.5 33l6.5-4.5c-2-8-2.5-17-1.5-25z" fill="#A6481F"/>
  <path d="M65 42c3 10 3.5 22 1.5 33l-6.5-4.5c2-8 2.5-17 1.5-25z" fill="#A6481F"/>
  <path d="M30.5 36c.5-12 8-21 17.5-21s17 9 17.5 21c-1.5-6-4-9.5-7.5-11-5 2.5-12 3.2-19 1.5-3.5-.8-6.5 2.5-8.5 9.5z" fill="#A6481F"/>
  <path d="M40 16.5c-1.5 4-2 8-1.5 12M52 16c1.5 4 2 8 1.5 12" stroke="#8A3D1A" stroke-width="1.6" stroke-linecap="round" fill="none" opacity=".6"/>
  <path d="M36.6 38.6c2.3-1.6 6.1-1.7 8.5-.4" stroke="#8A3D1A" stroke-width="2" stroke-linecap="round" fill="none"/>
  <path d="M50.9 38.2c2.4-1.4 6.1-1.3 8.5.4" stroke="#8A3D1A" stroke-width="2" stroke-linecap="round" fill="none"/>
  <ellipse cx="41" cy="44.5" rx="3.3" ry="3.5" fill="#FFFFFF"/>
  <circle cx="41.3" cy="44.7" r="1.95" fill="#5E7C4F"/>
  <circle cx="41.3" cy="44.7" r=".85" fill="#1B1B1B"/>
  <circle cx="42" cy="43.9" r=".7" fill="#FFFFFF"/>
  <path d="M37.4 41.9c2.2-1.9 6-2.1 7.8-.4" stroke="#6B3A22" stroke-width="1.6" stroke-linecap="round" fill="none"/>
  <ellipse cx="55" cy="44.5" rx="3.3" ry="3.5" fill="#FFFFFF"/>
  <circle cx="54.7" cy="44.7" r="1.95" fill="#5E7C4F"/>
  <circle cx="54.7" cy="44.7" r=".85" fill="#1B1B1B"/>
  <circle cx="55.4" cy="43.9" r=".7" fill="#FFFFFF"/>
  <path d="M50.8 41.5c1.8-1.7 5.6-1.5 7.8.4" stroke="#6B3A22" stroke-width="1.6" stroke-linecap="round" fill="none"/>
  <path d="M47.3 48c-.5 2.4 1.3 3.6 3 2.5" stroke="#000000" stroke-opacity=".22" stroke-width="1.5" stroke-linecap="round" fill="none"/>
  <g fill="#D9A184" opacity=".8">
    <circle cx="36.5" cy="50" r=".9"/>
    <circle cx="39.2" cy="52" r=".9"/>
    <circle cx="35" cy="53" r=".9"/>
    <circle cx="59.5" cy="50" r=".9"/>
    <circle cx="56.8" cy="52" r=".9"/>
    <circle cx="61" cy="53" r=".9"/>
  </g>
  <path d="M44 53c1.6-1.2 6.4-1.2 8 0-1.4 1.7-2.6 2.5-4 2.5s-2.6-.8-4-2.5z" fill="#CE7A7A"/>
  <path d="M44 53c1.5 2.6 6.5 2.6 8 0z" fill="#DB8C8C"/>
  <path d="M44 53h8" stroke="#A65E5E" stroke-width="1" stroke-linecap="round"/>
</svg>
