<svg xmlns="http://www.w3.org/2000/svg" width="96" height="96" viewBox="0 0 96 96">
  <defs>
    <linearGradient id="bg" x1="0" y1="0" x2="0" y2="1">
      <stop offset="0" stop-color="#F3E5F5"/>
      <stop offset="1" stop-color="#E1BEE7"/>
    </linearGradient>
    <linearGradient id="skin" x1="0" y1="0" x2="0" y2="1">
      <stop offset="0" stop-color="#E8AE82"/>
      <stop offset="1" stop-color="#D99A6C"/>
    </linearGradient>
  </defs>
  <circle cx="48" cy="48" r="48" fill="url(#bg)"/>
  <circle cx="48" cy="15" r="7" fill="#2E211A"/>
  <path d="M48 66c-19 0-34 13-36 32h72c-2-19-17-32-36-32z" fill="#F9A825"/>
  <path d="M40 66l8 10 8-10-8-4z" fill="#FFCA28"/>
  <rect x="41" y="52" width="14" height="18" rx="7" fill="#C98C61"/>
  <circle cx="30.5" cy="43" r="4.5" fill="#D99A6C"/>
  <circle cx="65.5" cy="43" r="4.5" fill="#D99A6C"/>
  <ellipse cx="48" cy="42" rx="17.5" ry="19.5" fill="url(#skin)"/>
  <path d="M34.5 45c.5 10.5 6 17.5 13.5 17.5S61 55.5 61.5 45c-1.2 6-3.8 10-7 12-2.2 1.4-6.3 2-6.5 2s-4.3-.6-6.5-2c-3.2-2-5.8-6-7-12z" fill="#3B2A20" opacity=".5"/>
  <path d="M30 43c-1-17 8-28 18-28s19 11 18 28c-2-11-6.5-16.5-13.5-18-6-1.3-12 1.5-15.5 7-1.5 2.4-3.5 5-5 11z" fill="#2E211A"/>
  <path d="M36.5 37.5c2.5-1.8 7-2 9.5-.4" stroke="#2E211A" stroke-width="2.4" stroke-linecap="round" fill="none"/>
  <path d="M50 37.1c2.5-1.6 7-1.4 9.5.4" stroke="#2E211A" stroke-width="2.4" stroke-linecap="round" fill="none"/>
  <ellipse cx="41" cy="43" rx="3.4" ry="3.6" fill="#FFFFFF"/>
  <circle cx="41.3" cy="43.2" r="2" fill="#3E2723"/>
  <circle cx="41.3" cy="43.2" r=".9" fill="#1B1B1B"/>
  <circle cx="42.1" cy="42.4" r=".75" fill="#FFFFFF"/>
  <ellipse cx="55" cy="43" rx="3.4" ry="3.6" fill="#FFFFFF"/>
  <circle cx="54.7" cy="43.2" r="2" fill="#3E2723"/>
  <circle cx="54.7" cy="43.2" r=".9" fill="#1B1B1B"/>
  <circle cx="55.5" cy="42.4" r=".75" fill="#FFFFFF"/>
  <path d="M44.5 49.2c2.2-.9 4.8-.9 7 0" stroke="#3B2A20" stroke-opacity=".55" stroke-width="1.8" stroke-linecap="round" fill="none"/>
  <path d="M47.2 46.6c-.6 2.5 1.4 3.7 3.2 2.5" stroke="#000000" stroke-opacity=".25" stroke-width="1.5" stroke-linecap="round" fill="none"/>
  <path d="M43.6 52.6c2.4 3 6.4 3 8.8 0" stroke="#263238" stroke-width="2.1" stroke-linecap="round" fill="none"/>
</svg>
