<svg xmlns="http://www.w3.org/2000/svg" width="96" height="96" viewBox="0 0 96 96">
  <defs>
    <linearGradient id="bg" x1="0" y1="0" x2="0" y2="1">
      <stop offset="0" stop-color="#E8EAF6"/>
      <stop offset="1" stop-color="#C5CAE9"/>
    </linearGradient>
    <linearGradient id="skin" x1="0" y1="0" x2="0" y2="1">
      <stop offset="0" stop-color="#A56B41"/>
      <stop offset="1" stop-color="#93603A"/>
    </linearGradient>
  </defs>
  <circle cx="48" cy="48" r="48" fill="url(#bg)"/>
  <path d="M60 12c9 0 15 7 15 17 0 8-3 15-8 20 2-7 2-14-1-20-3-7-8-12-14-14z" fill="#1C1512"/>
  <circle cx="57" cy="16" r="7" fill="#1C1512"/>
  <rect x="53.5" y="17" width="8" height="3.6" rx="1.8" fill="#EF5350"/>
  <path d="M48 66c-19 0-34 13-36 32h72c-2-19-17-32-36-32z" fill="#8E24AA"/>
  <path d="M40 66l8 10 8-10-8-4z" fill="#E1BEE7"/>
  <rect x="41" y="52" width="14" height="18" rx="7" fill="#855432"/>
  <circle cx="30.5" cy="43" r="4.5" fill="#93603A"/>
  <circle cx="65.5" cy="43" r="4.5" fill="#93603A"/>
  <circle cx="30.5" cy="47.5" r="3.4" fill="none" stroke="#FFD54F" stroke-width="1.8"/>
  <circle cx="65.5" cy="47.5" r="3.4" fill="none" stroke="#FFD54F" stroke-width="1.8"/>
  <ellipse cx="48" cy="42" rx="17.5" ry="19.5" fill="url(#skin)"/>
  <path d="M31.5 40c1-13 8-22 16.5-22s15.5 9 16.5 22c-2-8-6-12.5-12-14-4.5-1.1-9.5-.3-13.5 2.5-3.5 2.4-5.5 6-7.5 11.5z" fill="#1C1512"/>
  <path d="M36.4 36.6c2.5-1.6 6.5-1.7 9-.3" stroke="#1C1512" stroke-width="2.2" stroke-linecap="round" fill="none"/>
  <path d="M50.6 36.3c2.5-1.4 6.5-1.3 9 .3" stroke="#1C1512" stroke-width="2.2" stroke-linecap="round" fill="none"/>
  <ellipse cx="41" cy="43" rx="3.4" ry="3.6" fill="#FFFFFF"/>
  <circle cx="41.3" cy="43.2" r="2" fill="#3E2723"/>
  <circle cx="41.3" cy="43.2" r=".9" fill="#1B1B1B"/>
  <circle cx="42.1" cy="42.4" r=".75" fill="#FFFFFF"/>
  <path d="M37.3 40.4c2.3-2 6.2-2.2 8-.4" stroke="#0F0C0A" stroke-width="1.7" stroke-linecap="round" fill="none"/>
  <ellipse cx="55" cy="43" rx="3.4" ry="3.6" fill="#FFFFFF"/>
  <circle cx="54.7" cy="43.2" r="2" fill="#3E2723"/>
  <circle cx="54.7" cy="43.2" r=".9" fill="#1B1B1B"/>
  <circle cx="55.5" cy="42.4" r=".75" fill="#FFFFFF"/>
  <path d="M50.7 40c1.8-1.8 5.7-1.6 8 .4" stroke="#0F0C0A" stroke-width="1.7" stroke-linecap="round" fill="none"/>
  <path d="M47.2 46.5c-.6 2.5 1.4 3.7 3.2 2.5" stroke="#000000" stroke-opacity=".28" stroke-width="1.6" stroke-linecap="round" fill="none"/>
  <path d="M43.8 51.5c1.7-1.3 6.7-1.3 8.4 0-1.4 1.8-2.6 2.6-4.2 2.6s-2.8-.8-4.2-2.6z" fill="#A9525C"/>
  <path d="M43.8 51.5c1.5 2.7 6.9 2.7 8.4 0z" fill="#BA6474"/>
  <path d="M43.8 51.5h8.4" stroke="#7E3E4A" stroke-width="1" stroke-linecap="round"/>
</svg>
